<?xml version="1.0" encoding="UTF-8"?>
<svg id="Layer_1" data-name="Layer 1" xmlns="http://www.w3.org/2000/svg" version="1.1" viewBox="0 0 300 300">
  <defs>
    <style>
      .cls-1 {
        fill: #f0ad44;
        stroke-width: 0px;
      }
    </style>
  </defs>
  <path class="cls-1" d="M278.95,55.03c-12.12-19.4-40.19-28.53-64.54-21.39-2.38.69-6.56.75-5.91,4.12.63,3.3,4.57,2.09,7.04,1.71,7.16-1.17,14.25-1.19,21.39-.06,26.25,4.14,41.25,22.87,37.81,48.31-3.18,23.44-14.85,42.51-32.81,57.65-6.75,5.72-14.93,8.31-23.89,8.36-14.33.12-28.68.46-43.01.71-13.53.25-27.07.42-40.6.79-3.24.1-4.59-.59-3.11-3.95.38-.86.52-1.84.79-2.74,10.9-36.78,21.76-73.57,32.75-110.31.69-2.36.21-6.52,3.66-6.33,3.34.19,2.57,4.3,3.05,6.71,6.87,34.05,16.69,67.36,25.59,100.89.84,3.24,2.71,4.26,5.87,4.16,7-.19,14.02-.33,21.03-.17,3.91.1,4.05-1.4,3.13-4.59-11.65-40.56-22.73-81.29-35.01-121.65-.98-3.24-2.36-6.22-4.74-8.73-11.43-12.03-30.14-10.11-38.79,4.28-4.55,7.52-7.54,15.81-10.44,24.06-13.14,37.56-25.69,75.36-39.71,112.62-1.61,4.3-3.49,5.76-8.1,5.72-22.41-.21-42.99,4.87-58.9,22.14-5.95,5.89-9.34,12.99-10.72,21.24-1.9,11.24,2.74,21.89,12.47,27.86,8.19,5.03,21.99,4.22,29.93-1.78,1.78-1.36,3.82-2.97,2.86-5.49-1.04-2.69-3.68-2.11-5.83-1.71-3.61.65-7.12,1.69-10.86,1.42-6.25-.46-11.17-4.95-11.86-11.09-.73-6.56.61-12.64,4.37-18.19,8.56-12.59,21.07-16.84,35.53-16.54,6.29.13,9.3,4.49,7.42,10.42-6.71,21.01-13.22,42.13-23.23,61.89-5.2,10.26-11.2,19.99-18.53,28.91-6.91,8.36-14.6,15.14-26.42,14.54-.46-.02-.96.06-1.42.17-1.07.29-2.28.54-2.49,1.86-.25,1.53.81,2.34,2.01,2.86,2.17.92,4.68,1.11,6.35,3.05,9.73,3.89,19.53,2.95,29.33.33,13.56-4.05,25.42-11.3,36.95-19.22.38-.25.77-.5,1.11-.81,3.82-3.38,8.12-6.1,12.16-9.15,13.16-9.88,25.84-20.45,39.66-29.49.38-.25.75-.5,1.09-.79,1.52-1.55,2.61-1.5,3.38.73,1.09,3.17,2.72,6.1,4.26,9.06,4.32,8.31,10.49,14.7,19.24,18.4,10.57,4.45,26.28,1.44,32.98-8.67,0-.23,0-.46-.02-.69.9-1.48,1.82-2.97,2.71-4.47,3.24-5.64,4.09-11.66,2.72-18-.27-1.27-.31-3.17-2.28-3.13-1.61.02-1.73,1.61-2.09,2.78-.94,2.9-2.11,5.66-3.82,8.21-6.39,9.52-16.5,11.15-25.55,4.07-10.71-8.36-12.7-22.52-4.68-34.17,5.54-8.08,13.41-13.49,21.76-18.28,16.17-9.27,33.19-17.09,48.35-28.05,20.6-14.87,37.26-33.07,45.05-57.79,5.66-17.94,5.95-35.97-4.45-52.61ZM207.91,171.48c-20.76,10-40.75,21.3-57.21,37.64-16.63,16.52-36.8,28.26-55.29,42.38,9.86-20.57,15.67-42.46,22.85-63.79,4.3-12.74,12.66-17.38,24.84-18.21,20.01-1.36,40.06-1.98,60.11-2,3.41,0,6.87-1.19,10.72.12-1.63,2.32-4.01,2.9-6.02,3.86Z"/>
  <path class="cls-1" d="M285.12,276.53c-11.78,1.44-21.63-.93-30.87-6.13-15.1-8.49-24.21-21.74-29.82-37.75-3.74-10.67-7.48-21.34-11.35-31.97-1.39-3.82-.55-6.31,3.2-8.15,6.58-3.22,13.11-6.57,19.5-10.15,3.18-1.78,4.26-.89,5.27,2.31,4.72,15.05,9.6,30.06,15.86,44.56,7.19,16.64,14.06,33.5,28.21,47.28Z"/>
</svg>